<svg width="40" height="46" viewBox="0 0 40 46" fill="none" xmlns="http://www.w3.org/2000/svg">
<path d="M2.98742 0C2.61979 0 2.34587 0.344521 2.37849 0.765603L5.4778 40.7441C5.51042 41.1652 5.82685 41.6022 6.18124 41.7154L19.3331 45.9148C19.6874 46.028 20.267 46.028 20.6214 45.9151L33.8133 41.7088C34.1675 41.5958 34.4844 41.1587 34.517 40.7378L37.6214 0.765603C37.6543 0.344521 37.3801 0 37.0124 0H2.98742ZM31.021 9.16895C30.9918 9.54452 30.9411 10.1965 30.9085 10.6176L30.8268 11.6665C30.7939 12.0875 30.7471 12.6895 30.7224 13.0042C30.6978 13.319 30.6744 13.5765 30.6701 13.5765C30.666 13.5765 30.3617 13.5765 29.9941 13.5765H20.6683C20.3007 13.5765 19.9969 13.5765 19.9928 13.5765C19.9888 13.5765 19.6847 13.5765 19.3171 13.5765H14.4056C14.0379 13.5765 13.764 13.9211 13.7966 14.3421L14.0831 18.0249C14.1157 18.4458 14.4434 18.7905 14.811 18.7905H19.3172C19.6848 18.7905 19.989 18.7905 19.993 18.7905C19.997 18.7905 20.3009 18.7905 20.6685 18.7905H28.4139C28.7816 18.7905 29.3505 18.7905 29.6782 18.7905C30.0056 18.7905 30.2494 19.0978 30.2197 19.4734C30.1899 19.849 30.139 20.5011 30.1064 20.922L29.1852 32.7947C29.1523 33.2158 29.1107 33.7537 29.0928 33.9902C29.0745 34.2265 28.7698 34.5123 28.4156 34.6253L20.6442 37.1033C20.2899 37.2162 19.9955 37.3096 19.99 37.311C19.9846 37.3124 19.6903 37.2209 19.3359 37.1079L11.5562 34.6254C11.202 34.5124 10.8854 34.0753 10.8528 33.6543L10.352 27.1904C10.3194 26.7694 10.5936 26.4248 10.9612 26.4248H11.6712C12.0388 26.4248 12.6404 26.4248 13.008 26.4248H14.0668C14.4344 26.4248 14.7618 26.7694 14.7947 27.1904L14.9911 29.7208C15.0237 30.1419 15.3407 30.5765 15.6957 30.6867L19.3347 31.8168C19.6895 31.927 19.9812 32.0173 19.9828 32.0173C19.9844 32.0173 20.276 31.9269 20.6309 31.8167L24.2765 30.6838C24.6313 30.5736 24.9485 30.1388 24.9814 29.7179L25.3767 24.6483C25.4096 24.2272 25.1356 23.8827 24.768 23.8827H20.6685C20.3009 23.8827 19.997 23.8827 19.993 23.8827C19.989 23.8827 19.6848 23.8827 19.3172 23.8827H10.763C10.3953 23.8827 10.0679 23.538 10.0353 23.1171L9.06532 10.6174C9.0327 10.1964 8.98204 9.54452 8.95276 9.16879C8.92375 8.79322 9.20061 8.4859 9.56824 8.4859H19.3172C19.6848 8.4859 19.989 8.4859 19.993 8.4859C19.997 8.4859 20.3009 8.4859 20.6685 8.4859H30.4057C30.7732 8.4859 31.0502 8.79322 31.021 9.16895Z" fill="#76FFBA"/>
</svg>
