<svg width="108" height="130" viewBox="0 0 108 130" fill="none" xmlns="http://www.w3.org/2000/svg">
<path d="M35.0684 49.2014H72.9316L69.3457 91.2229L54 96.5549L38.3379 91.2229L35.0684 49.2014Z" fill="#3A517D"/>
<path d="M72.9317 48.4398H35.0684C34.9803 48.4398 34.8932 48.4619 34.8127 48.5048C34.7321 48.5477 34.6599 48.6103 34.6006 48.6887C34.5413 48.7671 34.4963 48.8595 34.4684 48.96C34.4405 49.0606 34.4303 49.167 34.4385 49.2726L37.708 91.2941C37.7202 91.4468 37.7704 91.5915 37.8521 91.7093C37.9338 91.8271 38.0431 91.9125 38.1658 91.9542L53.8279 97.2862C53.8839 97.3053 53.9418 97.3151 54 97.3152C54.0594 97.3152 54.1185 97.3051 54.1755 97.2852L69.5212 91.9532C69.6424 91.9111 69.7504 91.8263 69.8313 91.7097C69.9122 91.5932 69.9623 91.4502 69.9752 91.2991L73.5611 49.2776C73.5701 49.1716 73.5606 49.0645 73.5331 48.9632C73.5055 48.8619 73.4607 48.7687 73.4013 48.6896C73.342 48.6105 73.2696 48.5472 73.1887 48.5039C73.1078 48.4606 73.0202 48.4382 72.9317 48.4382V48.4398ZM68.7597 90.6339L54 95.7628L38.9289 90.6339L35.7649 49.9652H72.2318L68.7597 90.6339Z" fill="white"/>
<path d="M51.5599 63.3999C51.8481 63.3999 52.1245 63.5377 52.3283 63.783C52.5321 64.0284 52.6466 64.3611 52.6466 64.708V74.5728C52.6466 76.2848 52.2588 77.6033 51.4831 78.5282C51.0517 79.0081 50.5443 79.3784 49.9913 79.617C49.4383 79.8555 48.8511 79.9574 48.2646 79.9165C47.6213 79.9575 46.9775 79.8447 46.3706 79.5847C45.7637 79.3246 45.2056 78.9223 44.7285 78.4012C44.0923 77.6413 43.6736 76.6574 43.5329 75.592C43.5037 75.4028 43.5095 75.2082 43.5498 75.0221C43.5901 74.8359 43.664 74.6626 43.7661 74.5147C43.8682 74.3667 43.9962 74.2475 44.1408 74.1657C44.2855 74.0839 44.4433 74.0413 44.6032 74.0411H45.7443C45.9823 74.0469 46.2118 74.1488 46.3958 74.3305C46.5799 74.5122 46.7078 74.7632 46.7589 75.043C46.8092 75.4222 46.9758 75.7648 47.2257 76.0034C47.4756 76.2419 47.7908 76.3589 48.1089 76.3314C48.9409 76.3314 49.3568 75.7454 49.3568 74.5733V64.708C49.3568 64.3611 49.4713 64.0284 49.6751 63.783C49.8789 63.5377 50.1554 63.3999 50.4436 63.3999H51.5599Z" fill="white"/>
<path d="M64.0318 77.5338C63.6423 78.2857 63.0822 78.8876 62.4177 79.2685C61.61 79.7254 60.7244 79.9472 59.8324 79.916C58.4884 79.9824 57.164 79.5108 56.0664 78.5748C55.4906 78.0646 55.043 77.3729 54.7729 76.5761C54.7119 76.3786 54.6918 76.1663 54.7143 75.9573C54.7368 75.7484 54.8012 75.5492 54.902 75.377C55.0027 75.2048 55.1368 75.0646 55.2927 74.9688C55.4485 74.8729 55.6214 74.8241 55.7964 74.8267H57.1282C57.3432 74.8333 57.5519 74.9151 57.729 75.0621C57.906 75.209 58.0436 75.4149 58.1251 75.6544C58.2131 75.8923 58.3396 76.1067 58.4972 76.2851C58.824 76.6453 59.2555 76.8363 59.6983 76.8168C60.064 76.841 60.4229 76.6913 60.6977 76.3999C60.8204 76.2566 60.9165 76.0836 60.9796 75.8924C61.0426 75.7011 61.0712 75.4959 61.0635 75.2903C61.0679 75.0984 61.0403 74.9075 60.9823 74.7286C60.9244 74.5498 60.8372 74.3868 60.726 74.2493C60.4861 73.9592 60.2021 73.7275 59.8894 73.5668C59.5564 73.3897 59.095 73.1776 58.5052 72.9305C57.7856 72.6445 57.0829 72.3004 56.4018 71.9006C55.8408 71.5526 55.3592 71.0446 54.999 70.4209C54.6107 69.6551 54.4076 68.7741 54.4126 67.877C54.4175 66.9798 54.6304 66.1021 55.0273 65.3427C55.455 64.6166 56.0449 64.0514 56.7287 63.7126C57.517 63.3188 58.3644 63.1255 59.2178 63.1449C60.7286 63.1449 61.9297 63.5769 62.821 64.4409C63.2975 64.8973 63.6786 65.4816 63.9339 66.1471C64.0096 66.3468 64.0425 66.5662 64.0294 66.7852C64.0164 67.0041 63.9579 67.2156 63.8593 67.4003C63.7607 67.585 63.6252 67.7369 63.4652 67.8421C63.3051 67.9474 63.1257 68.0026 62.9433 68.0027H61.5731C61.3656 67.9998 61.1631 67.9263 60.9888 67.7908C60.8145 67.6553 60.6756 67.4633 60.588 67.2369C60.5118 67.0449 60.4093 66.8698 60.2847 66.7189C60.1428 66.5572 59.9751 66.4319 59.7918 66.3506C59.6085 66.2692 59.4133 66.2335 59.2182 66.2456C58.8803 66.2264 58.5485 66.3581 58.2863 66.6153C58.1635 66.7532 58.0679 66.9224 58.0064 67.1105C57.9449 67.2986 57.9192 67.5009 57.9311 67.7025C57.9241 68.0675 58.0377 68.4209 58.247 68.6852C58.4734 68.9676 58.7447 69.1921 59.0448 69.3453C59.3654 69.5146 59.8268 69.7304 60.429 69.9928C61.1612 70.2779 61.8744 70.6297 62.5624 71.045C63.1284 71.4089 63.6155 71.928 63.9841 72.5603C64.4059 73.3257 64.6145 74.2327 64.5798 75.1502C64.5856 75.9907 64.3958 76.8165 64.0318 77.5338Z" fill="white"/>
</svg>
